<?xml version="1.0" standalone="no"?><!DOCTYPE svg PUBLIC "-//W3C//DTD SVG 1.1//EN" "http://www.w3.org/Graphics/SVG/1.1/DTD/svg11.dtd"><svg t="1617353950214" class="icon" viewBox="0 0 1365 1024" version="1.1" xmlns="http://www.w3.org/2000/svg" p-id="5673" xmlns:xlink="http://www.w3.org/1999/xlink" width="266.6015625" height="200"><defs><style type="text/css"></style></defs><path d="M410.737778 192.284444a47.786667 47.786667 0 1 0 47.786666-47.786666 47.786667 47.786667 0 0 0-47.786666 47.786666z m-138.808889 0a47.786667 47.786667 0 1 0 47.786667-47.786666 47.786667 47.786667 0 0 0-47.786667 47.786666z m997.262222 95.573334H96.142222V96.142222h1173.048889z m0 321.422222H438.613333v-227.555556h830.577778z m0 318.577778H437.475556v-227.555556h830.577777zM341.333333 927.857778H96.142222V384H341.333333zM1269.191111 0H96.142222A96.142222 96.142222 0 0 0 0 96.142222v831.715556A96.142222 96.142222 0 0 0 96.142222 1024h1173.048889A96.142222 96.142222 0 0 0 1365.333333 927.857778V96.142222A96.142222 96.142222 0 0 0 1269.191111 0z m-1137.777778 192.284444a47.786667 47.786667 0 1 0 47.786667-47.786666 47.786667 47.786667 0 0 0-46.08 47.786666z" fill="#5E5C5C" p-id="5674"></path></svg>