<?xml version="1.0" standalone="no"?><!DOCTYPE svg PUBLIC "-//W3C//DTD SVG 1.1//EN" "http://www.w3.org/Graphics/SVG/1.1/DTD/svg11.dtd"><svg t="1617353953752" class="icon" viewBox="0 0 1365 1024" version="1.1" xmlns="http://www.w3.org/2000/svg" p-id="5812" xmlns:xlink="http://www.w3.org/1999/xlink" width="266.6015625" height="200"><defs><style type="text/css"></style></defs><path d="M434.631111 1024h834.56A96.142222 96.142222 0 0 0 1365.333333 927.857778v-227.555556H434.631111zM341.333333 383.431111H0v544.426667A96.142222 96.142222 0 0 0 96.142222 1024H341.333333V384zM434.631111 384v225.28H1365.333333V383.431111H434.631111v0.568889zM1269.191111 0H96.142222A96.142222 96.142222 0 0 0 0 96.142222v193.422222h1365.333333v-193.422222A96.142222 96.142222 0 0 0 1269.191111 0zM181.475556 240.071111A47.786667 47.786667 0 1 1 227.555556 192.284444a47.786667 47.786667 0 0 1-46.08 47.786667z m138.808888 0a47.786667 47.786667 0 1 1 47.786667-47.786667 47.786667 47.786667 0 0 1-47.786667 47.786667z m138.808889 0a47.786667 47.786667 0 1 1 47.786667-47.786667 47.786667 47.786667 0 0 1-48.355556 47.786667z" fill="#5E5C5C" p-id="5813"></path></svg>