<?xml version="1.0" standalone="no"?><!DOCTYPE svg PUBLIC "-//W3C//DTD SVG 1.1//EN" "http://www.w3.org/Graphics/SVG/1.1/DTD/svg11.dtd"><svg t="1617354066628" class="icon" viewBox="0 0 1024 1024" version="1.1" xmlns="http://www.w3.org/2000/svg" p-id="1170" xmlns:xlink="http://www.w3.org/1999/xlink" width="200" height="200"><defs><style type="text/css"></style></defs><path d="M443.72992 853.34016A68.28032 68.28032 0 0 1 375.47008 921.6a68.27008 68.27008 0 1 1 68.25984-68.25984zM750.92992 853.34016c0 37.66272-30.55616 68.25984-68.25984 68.25984S614.4 891.00288 614.4 853.34016c0-37.74464 30.5664-68.28032 68.27008-68.28032s68.25984 30.53568 68.25984 68.28032zM921.6 238.94016H260.49536l-10.89536-69.14048C243.73248 132.74112 208.2304 102.4 170.67008 102.4H102.4v68.25984h78.20288l86.30272 546.53952c2.92864 18.54464 20.69504 33.7408 39.46496 33.7408h546.95936v-68.28032H330.56768L319.77472 614.4h533.5552L921.6 238.94016z" p-id="1171"></path></svg>