<?xml version="1.0" standalone="no"?><!DOCTYPE svg PUBLIC "-//W3C//DTD SVG 1.1//EN" "http://www.w3.org/Graphics/SVG/1.1/DTD/svg11.dtd"><svg t="1626343660077" class="icon" viewBox="0 0 1024 1024" version="1.1" xmlns="http://www.w3.org/2000/svg" p-id="698" width="32" height="32" xmlns:xlink="http://www.w3.org/1999/xlink"><defs><style type="text/css"></style></defs><path d="M512 64c247.424 0 448 200.576 448 448S759.424 960 512 960 64 759.424 64 512 264.576 64 512 64zM512 128a384 384 0 1 0 0 768 384 384 0 0 0 0-768z" p-id="699" fill="#bfbfbf"></path><path d="M653.226667 357.205333L482.133333 593.493333l-91.392-126.250666a31.829333 31.829333 0 0 0-44.586666-7.082667 32.042667 32.042667 0 0 0-7.082667 44.714667l117.248 161.877333c6.4 8.789333 16.085333 13.226667 25.813333 13.226667a31.701333 31.701333 0 0 0 25.856-13.226667l196.906667-272a32.042667 32.042667 0 0 0-25.770667-50.773333 31.829333 31.829333 0 0 0-25.856 13.184z" p-id="700" fill="#bfbfbf"></path></svg>